<svg width="65" height="65" viewBox="0 0 65 65" fill="none" xmlns="http://www.w3.org/2000/svg">
  <g clip-path="url(#clip0)">
    <path d="M64.504 0.622997C64.0685 0.14451 63.4199 -0.0800697 62.7819 0.026571C62.2492 0.115565 50.0324 2.25092 39.8364 11.7819H11.3943V6.21135C11.3943 5.15967 10.5417 4.30705 9.49 4.30705H5.69715C2.55569 4.30705 0 6.8663 0 10.0122V51.694C0 54.8397 2.55569 57.399 5.69715 57.399H8.22567H9.49H53.479V63.0961C53.479 64.1478 54.3316 65.0004 55.3833 65.0004H59.1762C62.3176 65.0004 64.8733 62.4412 64.8733 59.2953V17.4869C64.8733 15.1117 63.4159 13.0716 61.3498 12.2143C63.6947 6.99147 64.8491 2.72179 64.9363 2.39349C65.1023 1.76824 64.9394 1.10148 64.504 0.622997ZM49.5188 23.5865L46.3505 26.7615C43.298 29.8204 39.5012 32.1012 35.3707 33.3571L33.976 33.7811L47.1334 20.5962C47.8763 19.8517 47.875 18.6459 47.1306 17.9031C46.3861 17.1602 45.1803 17.1614 44.4375 17.9059L31.2908 31.0802L31.7134 29.6843C32.9671 25.544 35.2435 21.7386 38.2963 18.6793L41.4647 15.5043C48.0378 8.91748 55.9647 5.84369 60.264 4.56832C58.6644 9.2209 55.1157 17.9781 49.5188 23.5865ZM5.69715 8.11564H7.5857V13.8129V45.9888H5.69715C5.03534 45.9888 4.40007 46.1036 3.80859 46.3124V10.0122C3.80859 8.96636 4.65575 8.11564 5.69715 8.11564ZM59.1762 61.1918H57.2876V57.3988H59.1762C60.2175 57.3988 61.0647 58.2496 61.0647 59.2953C61.0647 60.3411 60.2175 61.1918 59.1762 61.1918ZM61.0647 17.4869V53.9139C60.4732 53.7052 59.838 53.5903 59.1762 53.5903H55.3833H9.49H8.22567H5.69715C4.65575 53.5903 3.80859 52.7395 3.80859 51.6938C3.80859 50.6481 4.65575 49.7974 5.69715 49.7974H9.49C10.5417 49.7974 11.3943 48.9448 11.3943 47.8931V15.5905H35.9982L35.6004 15.9892C32.1072 19.4898 29.5026 23.8437 28.0682 28.5807L26.1065 35.059V33.2615C26.1065 32.2098 25.2539 31.3572 24.2022 31.3572C23.1505 31.3572 22.2979 32.2098 22.2979 33.2615V40.0921L18.2301 44.1684C17.4872 44.9129 17.4884 46.1187 18.2329 46.8615C18.6046 47.2324 19.0913 47.4178 19.5781 47.4178C20.0661 47.4178 20.5541 47.2313 20.9261 46.8587L24.9922 42.784H31.8046C32.8562 42.784 33.7088 41.9314 33.7088 40.8797C33.7088 39.828 32.8562 38.9754 31.8046 38.9754H29.9859L36.4787 37.0012C41.2068 35.5635 45.5527 32.9531 49.0464 29.4522L52.2148 26.2772C55.2815 23.204 57.7581 19.3618 59.6833 15.6622C60.4787 15.8852 61.0647 16.6178 61.0647 17.4869Z" fill="white"/>
  </g>
  <defs>
    <clipPath id="clip0">
      <rect width="65" height="65" fill="white"/>
    </clipPath>
  </defs>
</svg>
