<svg width="63" height="63" viewBox="0 0 63 63" fill="none" xmlns="http://www.w3.org/2000/svg">
  <g clip-path="url(#clip0)">
    <path d="M16.7344 63.0001C21.823 63.0001 25.9629 58.8602 25.9629 53.7715V25.2732L51.8027 15.5833V35.3198C50.2594 34.1581 48.3416 33.4688 46.2656 33.4688C41.177 33.4688 37.0371 37.6087 37.0371 42.6973C37.0371 47.786 41.177 51.9258 46.2656 51.9258C51.3543 51.9258 55.4941 47.786 55.4941 42.6973V1.84576C55.4941 1.24062 55.1976 0.673452 54.6996 0.328824C54.2022 -0.0162838 53.5672 -0.0951109 53.0005 0.117818L23.4693 11.192C22.7488 11.4622 22.2715 12.1505 22.2715 12.92V46.394C20.7281 45.2323 18.8103 44.543 16.7344 44.543C11.6457 44.543 7.50586 48.6829 7.50586 53.7715C7.50586 58.8602 11.6457 63.0001 16.7344 63.0001ZM46.2656 48.2344C43.2125 48.2344 40.7285 45.7504 40.7285 42.6973C40.7285 39.6442 43.2125 37.1602 46.2656 37.1602C49.3187 37.1602 51.8027 39.6442 51.8027 42.6973C51.8027 45.7504 49.3187 48.2344 46.2656 48.2344ZM25.9629 14.199L51.8027 4.50905V11.641L25.9629 21.3309V14.199ZM16.7344 48.2344C19.7875 48.2344 22.2715 50.7184 22.2715 53.7715C22.2715 56.8247 19.7875 59.3087 16.7344 59.3087C13.6813 59.3087 11.1973 56.8247 11.1973 53.7715C11.1973 50.7184 13.6813 48.2344 16.7344 48.2344Z" fill="white"/>
  </g>
  <defs>
    <clipPath id="clip0">
      <rect width="63" height="63" fill="white"/>
    </clipPath>
  </defs>
</svg>
