<svg width="64" height="64" viewBox="0 0 64 64" fill="none" xmlns="http://www.w3.org/2000/svg">
  <g clip-path="url(#clip0)">
    <path d="M58.375 15.125H47.5371L46.14 8.13962C45.7907 6.39287 44.2443 5.125 42.4629 5.125H21.5371C19.7559 5.125 18.2093 6.39287 17.86 8.13962L16.4629 15.125H5.625C2.52338 15.125 0 17.6484 0 20.75V53.25C0 56.3516 2.52338 58.875 5.625 58.875H58.375C61.4766 58.875 64 56.3516 64 53.25V20.75C64 17.6484 61.4766 15.125 58.375 15.125ZM21.5371 8.875H42.4629L43.7129 15.125H20.2871L21.5371 8.875ZM60.25 53.25C60.25 54.2839 59.4089 55.125 58.375 55.125H5.625C4.59113 55.125 3.75 54.2839 3.75 53.25V20.75C3.75 19.7161 4.59113 18.875 5.625 18.875H58.375C59.4089 18.875 60.25 19.7161 60.25 20.75V53.25Z" fill="white"/>
    <path d="M32 23.125C24.3492 23.125 18.125 29.3492 18.125 37C18.125 44.6507 24.3492 50.875 32 50.875C39.6507 50.875 45.875 44.6507 45.875 37C45.875 29.3492 39.6507 23.125 32 23.125ZM32 47.125C26.417 47.125 21.875 42.5829 21.875 37C21.875 31.4171 26.417 26.875 32 26.875C37.583 26.875 42.125 31.4171 42.125 37C42.125 42.5829 37.583 47.125 32 47.125Z" fill="white"/>
    <path d="M16 23.125H10C8.9645 23.125 8.125 23.9645 8.125 25C8.125 26.0355 8.9645 26.875 10 26.875H16C17.0355 26.875 17.875 26.0355 17.875 25C17.875 23.9645 17.0355 23.125 16 23.125Z" fill="white"/>
  </g>
  <defs>
    <clipPath id="clip0">
      <rect width="64" height="64" fill="white"/>
    </clipPath>
  </defs>
</svg>
