<svg width="64" height="64" viewBox="0 0 64 64" fill="none" xmlns="http://www.w3.org/2000/svg">
  <path d="M62.9153 61.8305C58.1304 61.8305 54.2373 57.9374 54.2373 53.1525C54.2373 53.1428 54.2319 53.1341 54.2319 53.1243C59.6057 47.4782 62.9153 39.8492 62.9153 31.4576C62.9153 14.1125 48.8027 0 31.4576 0C14.1125 0 0 14.1125 0 31.4576C0 48.8027 14.1125 62.9153 31.4576 62.9153C39.4197 62.9153 46.6961 59.9355 52.2435 55.04C53.1406 60.1231 57.5794 64 62.9153 64C63.5151 64 64 63.5151 64 62.9153C64 62.3154 63.5151 61.8305 62.9153 61.8305ZM2.16949 31.4576C2.16949 15.3079 15.3079 2.16949 31.4576 2.16949C47.6073 2.16949 60.7458 15.3079 60.7458 31.4576C60.7458 47.6073 47.6073 60.7458 31.4576 60.7458C15.3079 60.7458 2.16949 47.6073 2.16949 31.4576Z" fill="white"/>
  <path d="M31.4576 4.33887C16.5044 4.33887 4.33899 16.5043 4.33899 31.4575C4.33899 46.4107 16.5044 58.5762 31.4576 58.5762C46.4109 58.5762 58.5763 46.4107 58.5763 31.4575C58.5763 16.5043 46.4109 4.33887 31.4576 4.33887ZM31.4576 56.4067C17.6998 56.4067 6.50848 45.2153 6.50848 31.4575C6.50848 17.6997 17.6998 6.50836 31.4576 6.50836C45.2155 6.50836 56.4068 17.6997 56.4068 31.4575C56.4068 45.2153 45.2155 56.4067 31.4576 56.4067Z" fill="white"/>
  <path d="M44.4746 23.8643C44.1144 23.8643 43.763 23.8979 43.4159 23.9467L43.3909 23.9022L42.5773 24.1105C42.5665 24.1137 42.5567 24.1181 42.5459 24.1213C42.1456 24.2266 41.7573 24.36 41.3852 24.527C41.3689 24.5346 41.3538 24.5433 41.3375 24.5498C40.973 24.7158 40.6226 24.9056 40.2918 25.1258C40.2831 25.1312 40.2733 25.1367 40.2658 25.1421C39.9599 25.3471 39.6735 25.5782 39.4012 25.8244C39.3459 25.8743 39.2906 25.9231 39.2363 25.9741C38.9847 26.2149 38.7482 26.472 38.5312 26.7453C38.4846 26.8039 38.4423 26.8647 38.3967 26.9243C38.1809 27.2129 37.9791 27.5112 37.8056 27.829C37.8023 27.8355 37.798 27.842 37.7947 27.8496C37.6201 28.1718 37.4758 28.5124 37.3478 28.8606C37.325 28.9224 37.3011 28.9843 37.2794 29.0472C37.1645 29.3889 37.0744 29.7414 37.0083 30.1026C36.9963 30.1699 36.9877 30.2382 36.9768 30.3066C36.9204 30.683 36.8813 31.0648 36.8813 31.4575C36.8813 31.8502 36.9204 32.232 36.9779 32.6095C36.9887 32.6778 36.9963 32.7451 37.0093 32.8134C37.0744 33.1746 37.1656 33.5272 37.2805 33.8689C37.3011 33.9318 37.3261 33.9925 37.3489 34.0544C37.4758 34.4026 37.6211 34.7432 37.7958 35.0653C37.799 35.0718 37.8034 35.0784 37.8066 35.086C37.9802 35.4038 38.182 35.7021 38.3967 35.9895C38.4412 36.0492 38.4846 36.11 38.5312 36.1696C38.7482 36.443 38.9836 36.7001 39.2363 36.9409C39.2906 36.9918 39.3459 37.0407 39.4012 37.0906C39.6746 37.3368 39.9599 37.5678 40.2668 37.7729C40.2755 37.7783 40.2842 37.7837 40.2929 37.7891C40.6237 38.0083 40.9741 38.1981 41.3386 38.3651C41.3548 38.3727 41.37 38.3814 41.3863 38.3879C41.7584 38.555 42.1456 38.6884 42.5459 38.7936C42.5567 38.7969 42.5665 38.8012 42.5773 38.8045L43.3909 39.0127L43.4159 38.9683C43.763 39.0171 44.1144 39.0507 44.4746 39.0507C48.6606 39.0507 52.0678 35.6435 52.0678 31.4575C52.0678 27.2714 48.6606 23.8643 44.4746 23.8643ZM43.3898 31.4575C43.3898 33.1703 43.0167 34.8701 42.3062 36.4224C42.035 36.303 41.7768 36.1609 41.5317 36.0015C41.4438 35.9451 41.3646 35.88 41.28 35.8182C41.1032 35.688 40.9329 35.5491 40.7723 35.3994C40.6986 35.3311 40.6259 35.2617 40.5576 35.1901C40.3753 34.9981 40.2061 34.7942 40.0521 34.5783C40.0249 34.5392 39.9924 34.5056 39.9653 34.4655C39.7928 34.2084 39.6474 33.9329 39.5205 33.6476C39.4847 33.5662 39.4565 33.4805 39.424 33.397C39.3394 33.1768 39.2678 32.9501 39.2125 32.7169C39.1897 32.6236 39.1658 32.5303 39.1485 32.4348C39.091 32.117 39.0508 31.7916 39.0508 31.4575C39.0508 31.1234 39.091 30.798 39.1496 30.4801C39.1669 30.3847 39.1908 30.2914 39.2136 30.1981C39.2689 29.9649 39.3405 29.7382 39.4251 29.518C39.4576 29.4344 39.4858 29.3487 39.5216 29.2674C39.6485 28.9821 39.7939 28.7066 39.9664 28.4495C39.9924 28.4104 40.026 28.3757 40.0531 28.3367C40.2061 28.1197 40.3753 27.9158 40.5586 27.7249C40.6281 27.6522 40.7007 27.5838 40.7734 27.5155C40.9329 27.3647 41.1032 27.227 41.2811 27.0968C41.3646 27.0361 41.4449 26.971 41.5327 26.9135C41.779 26.754 42.0361 26.6119 42.3072 26.4926C43.0167 28.0449 43.3898 29.7447 43.3898 31.4575ZM44.4746 36.8812C44.4691 36.8812 44.4648 36.8801 44.4594 36.8801C45.1742 35.1662 45.5593 33.3211 45.5593 31.4575C45.5593 29.5939 45.1742 27.7487 44.4594 26.0348C44.4648 26.0348 44.4691 26.0337 44.4746 26.0337C47.4652 26.0337 49.8983 28.4668 49.8983 31.4575C49.8983 34.4481 47.4652 36.8812 44.4746 36.8812Z" fill="white"/>
  <path d="M24.384 36.1696C24.4306 36.111 24.4729 36.0503 24.5185 35.9906C24.7332 35.7032 24.935 35.4049 25.1086 35.0881C25.1129 35.0805 25.1172 35.0729 25.1216 35.0643C25.2962 34.7421 25.4405 34.4026 25.5674 34.0544C25.5902 33.9925 25.6141 33.9318 25.6357 33.8689C25.7507 33.5272 25.8419 33.1746 25.9069 32.8123C25.9189 32.7451 25.9275 32.6767 25.9384 32.6095C25.9948 32.2331 26.0339 31.8502 26.0339 31.4575C26.0339 31.0648 25.9948 30.6819 25.9373 30.3055C25.9265 30.2371 25.9189 30.1699 25.9059 30.1026C25.8408 29.7414 25.7496 29.3889 25.6347 29.0461C25.6141 28.9832 25.5891 28.9224 25.5663 28.8595C25.4394 28.5113 25.2951 28.1718 25.1205 27.8507C25.1162 27.8431 25.1118 27.8355 25.1075 27.8268C24.9339 27.5101 24.7322 27.2107 24.5174 26.9232C24.4729 26.8636 24.4295 26.8028 24.384 26.7443C24.167 26.4709 23.9316 26.2138 23.6789 25.973C23.6246 25.922 23.5693 25.8732 23.514 25.8233C23.2406 25.5771 22.9553 25.346 22.6484 25.141C22.6397 25.1356 22.631 25.1312 22.6223 25.1258C22.2915 24.9067 21.9411 24.7169 21.5766 24.5498C21.5604 24.5422 21.5441 24.5335 21.5278 24.526C21.1558 24.36 20.7674 24.2255 20.3671 24.1203C20.3563 24.117 20.3465 24.1127 20.3368 24.1094L19.5232 23.9011L19.4983 23.9456C19.1522 23.8979 18.8008 23.8643 18.4406 23.8643C14.2546 23.8643 10.8474 27.2714 10.8474 31.4575C10.8474 35.6435 14.2546 39.0507 18.4406 39.0507C18.8008 39.0507 19.1522 39.0171 19.4993 38.9683L19.5243 39.0127L20.3379 38.8045C20.3487 38.8012 20.3585 38.7969 20.3693 38.7936C20.7696 38.6884 21.1579 38.555 21.5289 38.3879C21.5452 38.3803 21.5614 38.3716 21.5777 38.3641C21.9422 38.1981 22.2926 38.0072 22.6234 37.7881C22.6321 37.7826 22.6408 37.7783 22.6484 37.7729C22.9553 37.5678 23.2406 37.3368 23.514 37.0906C23.5693 37.0407 23.6246 36.9918 23.6789 36.9409C23.9305 36.7001 24.167 36.443 24.384 36.1696ZM23.7656 32.4348C23.7483 32.5303 23.7244 32.6236 23.7016 32.7169C23.6463 32.9501 23.5747 33.1768 23.4901 33.397C23.4576 33.4805 23.4294 33.5662 23.3936 33.6476C23.2667 33.9329 23.1213 34.2084 22.9488 34.4655C22.9228 34.5045 22.8892 34.5392 22.8621 34.5783C22.7091 34.7952 22.5399 34.9992 22.3566 35.1901C22.2871 35.2628 22.2145 35.3311 22.1418 35.3994C21.9823 35.5502 21.812 35.688 21.6341 35.8182C21.5506 35.8789 21.4703 35.944 21.3825 36.0015C21.1362 36.1609 20.8791 36.303 20.608 36.4224C19.8985 34.8701 19.5254 33.1703 19.5254 31.4575C19.5254 29.7447 19.8985 28.0449 20.609 26.4926C20.8802 26.6119 21.1384 26.754 21.3835 26.9135C21.4714 26.9699 21.5506 27.035 21.6352 27.0968C21.812 27.227 21.9823 27.3658 22.1429 27.5155C22.2166 27.5838 22.2893 27.6533 22.3576 27.7249C22.5399 27.9169 22.7091 28.1208 22.8631 28.3367C22.8903 28.3757 22.9228 28.4093 22.9499 28.4495C23.1224 28.7066 23.2677 28.9821 23.3947 29.2674C23.4305 29.3487 23.4587 29.4344 23.4912 29.518C23.5758 29.7382 23.6474 29.9649 23.7027 30.1981C23.7255 30.2914 23.7494 30.3847 23.7667 30.4801C23.8242 30.798 23.8644 31.1234 23.8644 31.4575C23.8644 31.7916 23.8242 32.117 23.7656 32.4348ZM13.0169 31.4575C13.0169 28.4668 15.45 26.0337 18.4406 26.0337C18.4461 26.0337 18.4504 26.0348 18.4558 26.0348C17.741 27.7487 17.3559 29.5939 17.3559 31.4575C17.3559 33.3211 17.741 35.1662 18.4558 36.8801C18.4504 36.8801 18.4461 36.8812 18.4406 36.8812C15.45 36.8812 13.0169 34.4481 13.0169 31.4575Z" fill="white"/>
  <path d="M23.9023 19.5245L24.1106 20.3381C24.1139 20.3489 24.1182 20.3587 24.1215 20.3696C24.2267 20.7698 24.3601 21.1582 24.5272 21.5291C24.5348 21.5454 24.5434 21.5606 24.5499 21.5769C24.7159 21.9414 24.9068 22.2917 25.1259 22.6226C25.1314 22.6312 25.1368 22.6399 25.1422 22.6486C25.3472 22.9545 25.5783 23.2409 25.8245 23.5142C25.8744 23.5696 25.9232 23.6249 25.9742 23.6791C26.215 23.9308 26.4721 24.1672 26.7455 24.3842C26.804 24.4308 26.8648 24.4742 26.9244 24.5187C27.213 24.7346 27.5113 24.9363 27.8291 25.1099C27.8356 25.1142 27.8421 25.1175 27.8497 25.1207C28.1719 25.2954 28.5125 25.4397 28.8607 25.5677C28.9225 25.5904 28.9833 25.6143 29.0462 25.636C29.3879 25.751 29.7404 25.841 30.1017 25.9072C30.1689 25.9191 30.2373 25.9278 30.3056 25.9386C30.6831 25.995 31.0649 26.0341 31.4576 26.0341C31.8503 26.0341 32.2321 25.995 32.6096 25.9376C32.6779 25.9267 32.7452 25.9191 32.8135 25.9061C33.1748 25.841 33.5273 25.7499 33.869 25.6349C33.9319 25.6143 33.9927 25.5893 34.0556 25.5666C34.4038 25.4397 34.7444 25.2943 35.0665 25.1197C35.0731 25.1164 35.0796 25.1121 35.0872 25.1088C35.405 24.9352 35.7033 24.7335 35.9918 24.5176C36.0515 24.4731 36.1122 24.4298 36.1708 24.3831C36.4442 24.1662 36.7013 23.9308 36.9421 23.678C36.9931 23.6238 37.0419 23.5685 37.0918 23.5131C37.338 23.2409 37.5691 22.9545 37.7741 22.6486C37.7795 22.6399 37.7849 22.6312 37.7903 22.6226C38.0095 22.2917 38.1993 21.9414 38.3663 21.5769C38.3739 21.5606 38.3826 21.5454 38.3891 21.5291C38.5551 21.1571 38.6896 20.7687 38.7948 20.3685C38.7981 20.3576 38.8024 20.3479 38.8057 20.337L39.0139 19.5235L38.9695 19.4985C39.0172 19.1525 39.0508 18.801 39.0508 18.4409C39.0508 14.2548 35.6436 10.8477 31.4576 10.8477C27.2716 10.8477 23.8644 14.2548 23.8644 18.4409C23.8644 18.801 23.898 19.1525 23.9468 19.4996L23.9023 19.5245ZM36.0016 21.3838C35.9452 21.4717 35.8801 21.5508 35.8183 21.6344C35.6881 21.8112 35.5493 21.9815 35.3996 22.142C35.3312 22.2147 35.2618 22.2885 35.1902 22.3568C34.9982 22.539 34.7943 22.7083 34.5784 22.8623C34.5394 22.8894 34.5057 22.922 34.4656 22.9491C34.2085 23.1216 33.933 23.2669 33.6477 23.3938C33.5663 23.4296 33.4806 23.4578 33.3971 23.4904C33.1769 23.575 32.9502 23.6466 32.717 23.7019C32.6237 23.7247 32.5304 23.7485 32.435 23.7659C32.1171 23.8245 31.7917 23.8646 31.4576 23.8646C31.1235 23.8646 30.7981 23.8245 30.4802 23.7659C30.3848 23.7485 30.2915 23.7247 30.1982 23.7019C29.965 23.6466 29.7383 23.575 29.5181 23.4904C29.4345 23.4578 29.3499 23.4296 29.2675 23.3938C28.9822 23.2669 28.7067 23.1216 28.4496 22.9491C28.4105 22.923 28.3758 22.8894 28.3368 22.8623C28.1198 22.7094 27.9159 22.539 27.725 22.3568C27.6523 22.2874 27.584 22.2147 27.5156 22.142C27.3659 21.9826 27.2271 21.8123 27.0969 21.6344C27.0362 21.5508 26.9711 21.4706 26.9136 21.3838C26.7541 21.1376 26.611 20.8805 26.4927 20.6093C29.5962 19.1883 33.3179 19.1883 36.4225 20.6093C36.3032 20.8805 36.1611 21.1386 36.0016 21.3838ZM31.4576 13.0171C34.4482 13.0171 36.8813 15.4502 36.8813 18.4409C36.8813 18.4474 36.8792 18.4539 36.8792 18.4604C33.4459 17.0481 29.4682 17.0481 26.036 18.4604C26.036 18.4539 26.0339 18.4474 26.0339 18.4409C26.0339 15.4502 28.467 13.0171 31.4576 13.0171Z" fill="white"/>
  <path d="M39.0129 43.3909L38.8046 42.5773C38.8013 42.5665 38.797 42.5567 38.7937 42.547C38.6885 42.1467 38.554 41.7584 38.388 41.3863C38.3804 41.37 38.3718 41.3538 38.3642 41.3375C38.1982 40.973 38.0073 40.6226 37.7882 40.2918C37.7828 40.2831 37.7784 40.2744 37.773 40.2658C37.568 39.9588 37.3369 39.6735 37.0907 39.4001C37.0408 39.3448 36.992 39.2895 36.941 39.2352C36.7002 38.9825 36.4431 38.7471 36.1697 38.5302C36.1112 38.4835 36.0504 38.4412 35.9908 38.3967C35.7033 38.182 35.405 37.9802 35.0872 37.8066C35.0796 37.8023 35.072 37.798 35.0633 37.7936C34.7411 37.619 34.4016 37.4747 34.0545 37.3478C33.9926 37.325 33.9308 37.3011 33.8679 37.2794C33.5262 37.1645 33.1737 37.0744 32.8114 37.0083C32.7441 36.9963 32.6769 36.9877 32.6085 36.9768C32.2332 36.9204 31.8503 36.8813 31.4576 36.8813C31.0649 36.8813 30.682 36.9204 30.3056 36.9779C30.2373 36.9887 30.17 36.9963 30.1028 37.0093C29.7415 37.0755 29.389 37.1656 29.0462 37.2805C28.9833 37.3011 28.9225 37.3261 28.8607 37.3489C28.5125 37.4758 28.173 37.6201 27.8508 37.7947C27.8432 37.799 27.8356 37.8034 27.827 37.8077C27.5102 37.9813 27.2119 38.182 26.9244 38.3978C26.8648 38.4423 26.804 38.4857 26.7455 38.5323C26.4721 38.7493 26.215 38.9847 25.9742 39.2374C25.9232 39.2917 25.8744 39.347 25.8245 39.4023C25.5783 39.6746 25.3472 39.9609 25.1422 40.2679C25.1368 40.2766 25.1324 40.2853 25.127 40.294C24.9079 40.6248 24.717 40.9752 24.551 41.3397C24.5434 41.3559 24.5348 41.3722 24.5272 41.3885C24.3612 41.7605 24.2267 42.1478 24.1215 42.5481C24.1182 42.5589 24.1128 42.5687 24.1106 42.5795L23.9023 43.3931L23.9468 43.418C23.898 43.763 23.8644 44.1144 23.8644 44.4746C23.8644 48.6606 27.2716 52.0678 31.4576 52.0678C35.6436 52.0678 39.0508 48.6606 39.0508 44.4746C39.0508 44.1144 39.0172 43.763 38.9684 43.4159L39.0129 43.3909ZM26.9136 41.5317C26.97 41.4438 27.0351 41.3646 27.0969 41.2811C27.2271 41.1043 27.3659 40.934 27.5156 40.7734C27.584 40.7007 27.6534 40.627 27.725 40.5586C27.917 40.3764 28.1209 40.2072 28.3368 40.0531C28.3758 40.026 28.4095 39.9935 28.4496 39.9664C28.7067 39.7939 28.9822 39.6485 29.2675 39.5216C29.3489 39.4858 29.4345 39.4576 29.5181 39.4251C29.7383 39.3405 29.965 39.2689 30.1982 39.2136C30.2915 39.1908 30.3848 39.1669 30.4802 39.1496C30.7981 39.091 31.1235 39.0508 31.4576 39.0508C31.7917 39.0508 32.1171 39.091 32.435 39.1496C32.5304 39.1669 32.6237 39.1908 32.717 39.2136C32.9502 39.2689 33.1769 39.3405 33.3971 39.4251C33.4806 39.4576 33.5653 39.4858 33.6477 39.5216C33.933 39.6485 34.2085 39.7939 34.4656 39.9664C34.5047 39.9924 34.5394 40.026 34.5784 40.0531C34.7954 40.2061 34.9993 40.3764 35.1902 40.5586C35.2629 40.6281 35.3312 40.7007 35.3996 40.7734C35.5493 40.9329 35.6881 41.1032 35.8183 41.2811C35.879 41.3646 35.9441 41.4449 36.0016 41.5317C36.1611 41.7779 36.3042 42.035 36.4225 42.3062C33.319 43.7272 29.5973 43.7272 26.4927 42.3062C26.612 42.035 26.7541 41.7768 26.9136 41.5317ZM31.4576 49.8983C28.467 49.8983 26.0339 47.4652 26.0339 44.4746C26.0339 44.4691 26.035 44.4648 26.035 44.4594C27.7489 45.1742 29.594 45.5593 31.4576 45.5593C33.3212 45.5593 35.1663 45.1742 36.8802 44.4594C36.8802 44.4648 36.8813 44.4691 36.8813 44.4746C36.8813 47.4652 34.4482 49.8983 31.4576 49.8983Z" fill="white"/>
</svg>
